<svg xmlns='http://www.w3.org/2000/svg' width="2012" height="1003">
  <rect x="1340.7375393000311" y="268.5658764691848" width="450.0" height="400.0" fill="#ffffff" stroke="#ff7000" />
  <text />
  <rect x="1340.7375393000311" y="268.5658764691848" width="450.0" height="400.0" fill="#ffffff" stroke="#ff7000" />
  <rect x="1340.7375393000311" y="268.5658764691848" width="450.0" height="40.0" fill="#ffb57b" stroke="#ff7000" />
  <text />
  <rect x="1340.7375393000311" y="308.5658764691848" width="450.0" height="360.0" fill="#ffffff" stroke="#ff7000" />
  <text />
  <text />
  <text />
  <image />
  <rect x="359.56350143711575" y="39.95191542879499" width="380.0" height="166.0" fill="#ffffff" stroke="#ff7000" />
  <text />
  <rect x="359.56350143711575" y="39.95191542879499" width="380.0" height="166.0" fill="#ffffff" stroke="#ff7000" />
  <rect x="359.56350143711575" y="39.95191542879499" width="380.0" height="40.0" fill="#ffb57b" stroke="#ff7000" />
  <text />
  <rect x="359.56350143711575" y="79.95191542879499" width="380.0" height="126.0" fill="#ffffff" stroke="#ff7000" />
  <text />
  <text />
  <text />
  <image />
  <rect x="357.1571378450749" y="369.28871639135684" width="390.0" height="166.0" fill="#ffffff" stroke="#ff7000" />
  <text />
  <rect x="357.1571378450749" y="369.28871639135684" width="390.0" height="166.0" fill="#ffffff" stroke="#ff7000" />
  <rect x="357.1571378450749" y="369.28871639135684" width="390.0" height="40.0" fill="#ffb57b" stroke="#ff7000" />
  <text />
  <rect x="357.1571378450749" y="409.28871639135684" width="390.0" height="126.0" fill="#ffffff" stroke="#ff7000" />
  <text />
  <text />
  <text />
  <image />
  <rect x="1344.4886333357395" y="-0.2910034918039628" width="390.0" height="166.0" fill="#ffffff" stroke="#ff7000" />
  <text />
  <rect x="1344.4886333357395" y="-0.2910034918039628" width="390.0" height="166.0" fill="#ffffff" stroke="#ff7000" />
  <rect x="1344.4886333357395" y="-0.2910034918039628" width="390.0" height="40.0" fill="#ffb57b" stroke="#ff7000" />
  <text />
  <rect x="1344.4886333357395" y="39.70899650819604" width="390.0" height="126.0" fill="#ffffff" stroke="#ff7000" />
  <text />
  <text />
  <text />
  <image />
  <rect x="748.8491909775885" y="531.8914492234452" width="380.0" height="130.0" fill="#ffffff" stroke="#ff7000" />
  <text />
  <rect x="748.8491909775885" y="531.8914492234452" width="380.0" height="130.0" fill="#ffffff" stroke="#ff7000" />
  <rect x="748.8491909775885" y="531.8914492234452" width="380.0" height="40.0" fill="#ffb57b" stroke="#ff7000" />
  <text />
  <rect x="748.8491909775885" y="571.8914492234452" width="380.0" height="90.0" fill="#ffffff" stroke="#ff7000" />
  <text />
  <text />
  <text />
  <image />
  <rect x="909.2062281711521" y="163.98886736862414" width="420.0" height="112.0" fill="#ffffff" stroke="#ff7000" />
  <text />
  <rect x="909.2062281711521" y="163.98886736862414" width="420.0" height="112.0" fill="#ffffff" stroke="#ff7000" />
  <rect x="909.2062281711521" y="163.98886736862414" width="420.0" height="40.0" fill="#ffb57b" stroke="#ff7000" />
  <text />
  <rect x="909.2062281711521" y="203.98886736862414" width="420.0" height="72.0" fill="#ffffff" stroke="#ff7000" />
  <text />
  <text />
  <text />
  <image />
  <rect x="370.7995973939542" y="691.6953471685547" width="380.0" height="130.0" fill="#ffffff" stroke="#ff7000" />
  <text />
  <rect x="370.7995973939542" y="691.6953471685547" width="380.0" height="130.0" fill="#ffffff" stroke="#ff7000" />
  <rect x="370.7995973939542" y="691.6953471685547" width="380.0" height="40.0" fill="#ffb57b" stroke="#ff7000" />
  <text />
  <rect x="370.7995973939542" y="731.6953471685547" width="380.0" height="90.0" fill="#ffffff" stroke="#ff7000" />
  <text />
  <text />
  <text />
  <image />
  <rect x="-5.0" y="860.0" width="350.0" height="130.0" fill="#ffffff" stroke="#ff7000" />
  <text />
  <rect x="-5.0" y="860.0" width="350.0" height="130.0" fill="#ffffff" stroke="#ff7000" />
  <rect x="-5.0" y="860.0" width="350.0" height="40.0" fill="#ffb57b" stroke="#ff7000" />
  <text />
  <rect x="-5.0" y="900.0" width="350.0" height="90.0" fill="#ffffff" stroke="#ff7000" />
  <text />
  <text />
  <text />
  <image />
  <ellipse cx="1012.0088603517283" cy="447.03462396648274" rx="60.0" ry="32.0" fill="#ffe3cd" stroke="#ff7000" stroke-width="2" />
  <text />
  <ellipse cx="1012.0088603517283" cy="447.03462396648274" rx="60.0" ry="32.0" fill="#ffe3cd" stroke="#ff7000" stroke-width="2" />
  <text />
  <text />
  <text />
  <text />
  <polyline points="1072 447, 1341 469" stroke="#ff7000" stroke-width="2" />
  <text />
  <polyline points="952 447, 747 452" stroke="#ff7000" stroke-width="2" />
  <text />
  <ellipse cx="549.0379576947012" cy="278.2977810590473" rx="50.0" ry="32.0" fill="#ffe3cd" stroke="#ff7000" stroke-width="2" />
  <text />
  <ellipse cx="549.0379576947012" cy="278.2977810590473" rx="50.0" ry="32.0" fill="#ffe3cd" stroke="#ff7000" stroke-width="2" />
  <text />
  <text />
  <text />
  <text />
  <ellipse cx="1547.4158495625607" cy="225.06511867489775" rx="60.0" ry="32.0" fill="#ffe3cd" stroke="#ff7000" stroke-width="2" />
  <text />
  <ellipse cx="1547.4158495625607" cy="225.06511867489775" rx="60.0" ry="32.0" fill="#ffe3cd" stroke="#ff7000" stroke-width="2" />
  <text />
  <text />
  <text />
  <text />
  <polyline points="1547 257, 1566 269" stroke="#ff7000" stroke-width="2" />
  <text />
  <polyline points="1547 193, 1539 166" stroke="#ff7000" stroke-width="2" />
  <text />
  <ellipse cx="1119.206228171152" cy="126.12394426690867" rx="60.0" ry="32.0" fill="#ffe3cd" stroke="#ff7000" stroke-width="2" />
  <text />
  <ellipse cx="1119.206228171152" cy="126.12394426690867" rx="60.0" ry="32.0" fill="#ffe3cd" stroke="#ff7000" stroke-width="2" />
  <text />
  <text />
  <text />
  <text />
  <polyline points="1119 158, 1119 164" stroke="#ff7000" stroke-width="2" />
  <text />
  <ellipse cx="546.7598706771631" cy="626.8602031113642" rx="205.0" ry="41.0" fill="#ffe3cd" stroke="#ff7000" stroke-width="2" />
  <text />
  <ellipse cx="546.7598706771631" cy="626.8602031113642" rx="205.0" ry="41.0" fill="#ffe3cd" stroke="#ff7000" stroke-width="2" />
  <text />
  <text />
  <text />
  <text />
  <polyline points="547 586, 552 535" stroke="#ff7000" stroke-width="2" />
  <text />
  <polyline points="547 668, 561 692" stroke="#ff7000" stroke-width="2" />
  <text />
  <ellipse cx="937.8491909775887" cy="763.1495035657017" rx="60.0" ry="32.0" fill="#ffe3cd" stroke="#ff7000" stroke-width="2" />
  <text />
  <ellipse cx="937.8491909775887" cy="763.1495035657017" rx="60.0" ry="32.0" fill="#ffe3cd" stroke="#ff7000" stroke-width="2" />
  <text />
  <text />
  <text />
  <text />
  <polyline points="878 763, 751 757" stroke="#ff7000" stroke-width="2" />
  <text />
  <polyline points="938 731, 939 662" stroke="#ff7000" stroke-width="2" />
  <text />
  <ellipse cx="192.0" cy="700.3999999999996" rx="135.0" ry="41.0" fill="#ffe3cd" stroke="#ff7000" stroke-width="2" />
  <text />
  <ellipse cx="192.0" cy="700.3999999999996" rx="135.0" ry="41.0" fill="#ffe3cd" stroke="#ff7000" stroke-width="2" />
  <text />
  <text />
  <text />
  <text />
  <polyline points="327 700, 357 452" stroke="#ff7000" stroke-width="2" />
  <text />
  <polyline points="192 741, 170 860" stroke="#ff7000" stroke-width="2" />
  <text />
  <ellipse cx="167.0" cy="371.39999999999986" rx="175.0" ry="41.0" fill="#ffe3cd" stroke="#ff7000" stroke-width="2" />
  <text />
  <ellipse cx="167.0" cy="371.39999999999986" rx="175.0" ry="41.0" fill="#ffe3cd" stroke="#ff7000" stroke-width="2" />
  <text />
  <text />
  <text />
  <text />
  <polyline points="167 412, 170 860" stroke="#ff7000" stroke-width="2" />
  <text />
  <ellipse cx="1136.0" cy="926.3999999999996" rx="135.0" ry="41.0" fill="#ffe3cd" stroke="#ff7000" stroke-width="2" />
  <text />
  <ellipse cx="1136.0" cy="926.3999999999996" rx="135.0" ry="41.0" fill="#ffe3cd" stroke="#ff7000" stroke-width="2" />
  <text />
  <text />
  <text />
  <text />
  <polyline points="1136 885, 1119 276" stroke="#ff7000" stroke-width="2" />
  <text />
  <polyline points="1001 926, 345 925" stroke="#ff7000" stroke-width="2" />
  <text />
  <polyline points="1072 447, 1341 469" stroke="#ff7000" stroke-width="2" />
  <polyline points="952 447, 747 452" stroke="#ff7000" stroke-width="2" />
  <polyline points="1547 257, 1566 269" stroke="#ff7000" stroke-width="2" />
  <polyline points="1547 193, 1539 166" stroke="#ff7000" stroke-width="2" />
  <polyline points="1119 158, 1119 164" stroke="#ff7000" stroke-width="2" />
  <polyline points="547 586, 552 535" stroke="#ff7000" stroke-width="2" />
  <polyline points="547 668, 561 692" stroke="#ff7000" stroke-width="2" />
  <polyline points="878 763, 751 757" stroke="#ff7000" stroke-width="2" />
  <polyline points="938 731, 939 662" stroke="#ff7000" stroke-width="2" />
  <polyline points="327 700, 357 452" stroke="#ff7000" stroke-width="2" />
  <polyline points="192 741, 170 860" stroke="#ff7000" stroke-width="2" />
  <polyline points="167 412, 170 860" stroke="#ff7000" stroke-width="2" />
  <polyline points="1136 885, 1119 276" stroke="#ff7000" stroke-width="2" />
  <polyline points="1001 926, 345 925" stroke="#ff7000" stroke-width="2" />
  <rect x="1817.0" y="107.0" width="194.0" height="140.0" fill="#ffe3cd" stroke="#ff7000" />
  <text />
  <polyline points="549 310, 552 369" stroke="#ff7000" stroke-width="2" />
  <polyline points="549 310, 552 369" stroke="#ff7000" stroke-width="2" />
  <text />
  <polyline points="549 246, 550 206" stroke="#ff7000" stroke-width="2" />
  <polyline points="1059 126, 740 123" stroke="#ff7000" stroke-width="2" />
  <polyline points="342 371, 360 123" stroke="#ff7000" stroke-width="2" />
  <polyline points="549 246, 550 206" stroke="#ff7000" stroke-width="2" />
  <text />
  <polyline points="1059 126, 740 123" stroke="#ff7000" stroke-width="2" />
  <text />
  <polyline points="342 371, 360 123" stroke="#ff7000" stroke-width="2" />
  <text />
  <rectangle />
  <text x="-1360.7375393000311" y="498.5658764691848" font-size="16"><tspan x="1360.7375393000311" y="355.5658764691848">🔑</tspan>
<tspan x="1360.7375393000311" y="371.5658764691848"></tspan>
<tspan x="1360.7375393000311" y="387.5658764691848"></tspan>
<tspan x="1360.7375393000311" y="403.5658764691848"></tspan>
<tspan x="1360.7375393000311" y="419.5658764691848"></tspan>
<tspan x="1360.7375393000311" y="435.5658764691848"></tspan>
<tspan x="1360.7375393000311" y="451.5658764691848"></tspan>
<tspan x="1360.7375393000311" y="467.5658764691848"></tspan>
<tspan x="1360.7375393000311" y="483.5658764691848"></tspan>
<tspan x="1360.7375393000311" y="499.5658764691848"></tspan>
<tspan x="1360.7375393000311" y="515.5658764691848"></tspan>
<tspan x="1360.7375393000311" y="531.5658764691848"></tspan>
<tspan x="1360.7375393000311" y="547.5658764691848"></tspan>
<tspan x="1360.7375393000311" y="563.5658764691848"></tspan>
<tspan x="1360.7375393000311" y="579.5658764691848"></tspan>
<tspan x="1360.7375393000311" y="595.5658764691848"></tspan>
<tspan x="1360.7375393000311" y="611.5658764691848"></tspan>
<tspan x="1360.7375393000311" y="627.5658764691848"></tspan>
<tspan x="1360.7375393000311" y="643.5658764691848"></tspan>
<tspan x="1360.7375393000311" y="659.5658764691848"></tspan>
</text>
  <rectangle />
  <rectangle />
  <text x="-1535.7375393000311" y="288.5658764691848" font-size="16"><tspan x="1535.7375393000311" y="288.5658764691848">logement</tspan>
</text>
  <rectangle />
  <text x="-1390.7375393000311" y="498.5658764691848" font-size="16"><tspan x="1390.7375393000311" y="355.5658764691848">id</tspan>
<tspan x="1390.7375393000311" y="371.5658764691848">type</tspan>
<tspan x="1390.7375393000311" y="387.5658764691848">surface</tspan>
<tspan x="1390.7375393000311" y="403.5658764691848">balcon</tspan>
<tspan x="1390.7375393000311" y="419.5658764691848">pieces_principales</tspan>
<tspan x="1390.7375393000311" y="435.5658764691848">place_parking</tspan>
<tspan x="1390.7375393000311" y="451.5658764691848">loyer</tspan>
<tspan x="1390.7375393000311" y="467.5658764691848">charges</tspan>
<tspan x="1390.7375393000311" y="483.5658764691848">etat</tspan>
<tspan x="1390.7375393000311" y="499.5658764691848">meuble</tspan>
<tspan x="1390.7375393000311" y="515.5658764691848">acces_handicape</tspan>
<tspan x="1390.7375393000311" y="531.5658764691848">etages</tspan>
<tspan x="1390.7375393000311" y="547.5658764691848">copropriete</tspan>
<tspan x="1390.7375393000311" y="563.5658764691848">periode_construction</tspan>
<tspan x="1390.7375393000311" y="579.5658764691848">cuisine_separee</tspan>
<tspan x="1390.7375393000311" y="595.5658764691848">cuisine_equipee</tspan>
<tspan x="1390.7375393000311" y="611.5658764691848">grenier</tspan>
<tspan x="1390.7375393000311" y="627.5658764691848">terrasse</tspan>
<tspan x="1390.7375393000311" y="643.5658764691848">jardin</tspan>
<tspan x="1390.7375393000311" y="659.5658764691848"></tspan>
</text>
  <text x="-1600.7375393000311" y="498.5658764691848" font-size="16"><tspan x="1600.7375393000311" y="355.5658764691848">integer</tspan>
<tspan x="1600.7375393000311" y="371.5658764691848">smallint</tspan>
<tspan x="1600.7375393000311" y="387.5658764691848">float</tspan>
<tspan x="1600.7375393000311" y="403.5658764691848">bool</tspan>
<tspan x="1600.7375393000311" y="419.5658764691848">integer</tspan>
<tspan x="1600.7375393000311" y="435.5658764691848">bool</tspan>
<tspan x="1600.7375393000311" y="451.5658764691848">float</tspan>
<tspan x="1600.7375393000311" y="467.5658764691848">float</tspan>
<tspan x="1600.7375393000311" y="483.5658764691848">smallint</tspan>
<tspan x="1600.7375393000311" y="499.5658764691848">bool</tspan>
<tspan x="1600.7375393000311" y="515.5658764691848">bool</tspan>
<tspan x="1600.7375393000311" y="531.5658764691848">integer</tspan>
<tspan x="1600.7375393000311" y="547.5658764691848">bool</tspan>
<tspan x="1600.7375393000311" y="563.5658764691848">smallint</tspan>
<tspan x="1600.7375393000311" y="579.5658764691848">bool</tspan>
<tspan x="1600.7375393000311" y="595.5658764691848">bool</tspan>
<tspan x="1600.7375393000311" y="611.5658764691848">bool</tspan>
<tspan x="1600.7375393000311" y="627.5658764691848">bool</tspan>
<tspan x="1600.7375393000311" y="643.5658764691848">bool</tspan>
<tspan x="1600.7375393000311" y="659.5658764691848"></tspan>
</text>
  <text x="-1690.7375393000311" y="498.5658764691848" font-size="16"><tspan x="1690.7375393000311" y="355.5658764691848">not null</tspan>
<tspan x="1690.7375393000311" y="371.5658764691848">not null</tspan>
<tspan x="1690.7375393000311" y="387.5658764691848">not null</tspan>
<tspan x="1690.7375393000311" y="403.5658764691848">not null</tspan>
<tspan x="1690.7375393000311" y="419.5658764691848">not null</tspan>
<tspan x="1690.7375393000311" y="435.5658764691848">not null</tspan>
<tspan x="1690.7375393000311" y="451.5658764691848">not null</tspan>
<tspan x="1690.7375393000311" y="467.5658764691848">not null</tspan>
<tspan x="1690.7375393000311" y="483.5658764691848">not null</tspan>
<tspan x="1690.7375393000311" y="499.5658764691848">not null</tspan>
<tspan x="1690.7375393000311" y="515.5658764691848">not null</tspan>
<tspan x="1690.7375393000311" y="531.5658764691848">not null</tspan>
<tspan x="1690.7375393000311" y="547.5658764691848">not null</tspan>
<tspan x="1690.7375393000311" y="563.5658764691848">not null</tspan>
<tspan x="1690.7375393000311" y="579.5658764691848">not null</tspan>
<tspan x="1690.7375393000311" y="595.5658764691848">not null</tspan>
<tspan x="1690.7375393000311" y="611.5658764691848">not null</tspan>
<tspan x="1690.7375393000311" y="627.5658764691848">not null</tspan>
<tspan x="1690.7375393000311" y="643.5658764691848">not null</tspan>
<tspan x="1690.7375393000311" y="659.5658764691848"></tspan>
</text>
  <image />
  <rectangle />
  <text x="-379.56350143711575" y="152.951915428795" font-size="16"><tspan x="379.56350143711575" y="110.05191542879498">🔑</tspan>
<tspan x="379.56350143711575" y="126.05191542879498"></tspan>
<tspan x="379.56350143711575" y="142.05191542879498"></tspan>
<tspan x="379.56350143711575" y="158.05191542879498"></tspan>
<tspan x="379.56350143711575" y="174.05191542879498"></tspan>
<tspan x="379.56350143711575" y="190.05191542879498"></tspan>
<tspan x="379.56350143711575" y="206.05191542879498"></tspan>
</text>
  <rectangle />
  <rectangle />
  <text x="-515.8135014371157" y="59.95191542879499" font-size="16"><tspan x="515.8135014371157" y="59.95191542879499">locataire</tspan>
</text>
  <rectangle />
  <text x="-409.56350143711575" y="152.951915428795" font-size="16"><tspan x="409.56350143711575" y="110.05191542879498">id</tspan>
<tspan x="409.56350143711575" y="126.05191542879498">prenom</tspan>
<tspan x="409.56350143711575" y="142.05191542879498">nom</tspan>
<tspan x="409.56350143711575" y="158.05191542879498">ressources</tspan>
<tspan x="409.56350143711575" y="174.05191542879498">date_naissance</tspan>
<tspan x="409.56350143711575" y="190.05191542879498">profession</tspan>
<tspan x="409.56350143711575" y="206.05191542879498"></tspan>
</text>
  <text x="-559.5635014371157" y="152.951915428795" font-size="16"><tspan x="559.5635014371157" y="110.05191542879498">integer</tspan>
<tspan x="559.5635014371157" y="126.05191542879498">varchar</tspan>
<tspan x="559.5635014371157" y="142.05191542879498">varchar</tspan>
<tspan x="559.5635014371157" y="158.05191542879498">float</tspan>
<tspan x="559.5635014371157" y="174.05191542879498">date</tspan>
<tspan x="559.5635014371157" y="190.05191542879498">varchar</tspan>
<tspan x="559.5635014371157" y="206.05191542879498"></tspan>
</text>
  <text x="-639.5635014371157" y="152.951915428795" font-size="16"><tspan x="639.5635014371157" y="110.05191542879498">not null</tspan>
<tspan x="639.5635014371157" y="126.05191542879498">not null</tspan>
<tspan x="639.5635014371157" y="142.05191542879498">not null</tspan>
<tspan x="639.5635014371157" y="158.05191542879498">not null</tspan>
<tspan x="639.5635014371157" y="174.05191542879498">not null</tspan>
<tspan x="639.5635014371157" y="190.05191542879498">not null</tspan>
<tspan x="639.5635014371157" y="206.05191542879498"></tspan>
</text>
  <image />
  <rectangle />
  <text x="-377.1571378450749" y="482.28871639135684" font-size="16"><tspan x="377.1571378450749" y="439.38871639135687">🔑</tspan>
<tspan x="377.1571378450749" y="455.38871639135687"></tspan>
<tspan x="377.1571378450749" y="471.38871639135687"></tspan>
<tspan x="377.1571378450749" y="487.38871639135687"></tspan>
<tspan x="377.1571378450749" y="503.38871639135687"></tspan>
<tspan x="377.1571378450749" y="519.3887163913569"></tspan>
<tspan x="377.1571378450749" y="535.3887163913569"></tspan>
</text>
  <rectangle />
  <rectangle />
  <text x="-537.1571378450749" y="389.28871639135684" font-size="16"><tspan x="537.1571378450749" y="389.28871639135684">bail</tspan>
</text>
  <rectangle />
  <text x="-407.1571378450749" y="482.28871639135684" font-size="16"><tspan x="407.1571378450749" y="439.38871639135687">id</tspan>
<tspan x="407.1571378450749" y="455.38871639135687">date_bail</tspan>
<tspan x="407.1571378450749" y="471.38871639135687">caution</tspan>
<tspan x="407.1571378450749" y="487.38871639135687">duree</tspan>
<tspan x="407.1571378450749" y="503.38871639135687">renouvellement</tspan>
<tspan x="407.1571378450749" y="519.3887163913569">colocation</tspan>
<tspan x="407.1571378450749" y="535.3887163913569"></tspan>
</text>
  <text x="-557.1571378450749" y="482.28871639135684" font-size="16"><tspan x="557.1571378450749" y="439.38871639135687">integer</tspan>
<tspan x="557.1571378450749" y="455.38871639135687">datetime</tspan>
<tspan x="557.1571378450749" y="471.38871639135687">float</tspan>
<tspan x="557.1571378450749" y="487.38871639135687">integer</tspan>
<tspan x="557.1571378450749" y="503.38871639135687">integer</tspan>
<tspan x="557.1571378450749" y="519.3887163913569">bool</tspan>
<tspan x="557.1571378450749" y="535.3887163913569"></tspan>
</text>
  <text x="-647.1571378450749" y="482.28871639135684" font-size="16"><tspan x="647.1571378450749" y="439.38871639135687">not null</tspan>
<tspan x="647.1571378450749" y="455.38871639135687">not null</tspan>
<tspan x="647.1571378450749" y="471.38871639135687">not null</tspan>
<tspan x="647.1571378450749" y="487.38871639135687">not null</tspan>
<tspan x="647.1571378450749" y="503.38871639135687">not null</tspan>
<tspan x="647.1571378450749" y="519.3887163913569">not null</tspan>
<tspan x="647.1571378450749" y="535.3887163913569"></tspan>
</text>
  <image />
  <rectangle />
  <text x="-1364.4886333357395" y="112.70899650819604" font-size="16"><tspan x="1364.4886333357395" y="69.80899650819603">🔑</tspan>
<tspan x="1364.4886333357395" y="85.80899650819603"></tspan>
<tspan x="1364.4886333357395" y="101.80899650819603"></tspan>
<tspan x="1364.4886333357395" y="117.80899650819603"></tspan>
<tspan x="1364.4886333357395" y="133.80899650819603"></tspan>
<tspan x="1364.4886333357395" y="149.80899650819603"></tspan>
<tspan x="1364.4886333357395" y="165.80899650819603"></tspan>
</text>
  <rectangle />
  <rectangle />
  <text x="-1513.2386333357395" y="19.708996508196037" font-size="16"><tspan x="1513.2386333357395" y="19.708996508196037">travaux</tspan>
</text>
  <rectangle />
  <text x="-1394.4886333357395" y="112.70899650819604" font-size="16"><tspan x="1394.4886333357395" y="69.80899650819603">id</tspan>
<tspan x="1394.4886333357395" y="85.80899650819603">date_debut</tspan>
<tspan x="1394.4886333357395" y="101.80899650819603">date_fin</tspan>
<tspan x="1394.4886333357395" y="117.80899650819603">nom_intervenant</tspan>
<tspan x="1394.4886333357395" y="133.80899650819603">tarif_ht</tspan>
<tspan x="1394.4886333357395" y="149.80899650819603">tarif_ttc</tspan>
<tspan x="1394.4886333357395" y="165.80899650819603"></tspan>
</text>
  <text x="-1554.4886333357395" y="112.70899650819604" font-size="16"><tspan x="1554.4886333357395" y="69.80899650819603">integer</tspan>
<tspan x="1554.4886333357395" y="85.80899650819603">date</tspan>
<tspan x="1554.4886333357395" y="101.80899650819603">date</tspan>
<tspan x="1554.4886333357395" y="117.80899650819603">varchar</tspan>
<tspan x="1554.4886333357395" y="133.80899650819603">float</tspan>
<tspan x="1554.4886333357395" y="149.80899650819603">float</tspan>
<tspan x="1554.4886333357395" y="165.80899650819603"></tspan>
</text>
  <text x="-1634.4886333357395" y="112.70899650819604" font-size="16"><tspan x="1634.4886333357395" y="69.80899650819603">not null</tspan>
<tspan x="1634.4886333357395" y="85.80899650819603">not null</tspan>
<tspan x="1634.4886333357395" y="101.80899650819603">not null</tspan>
<tspan x="1634.4886333357395" y="117.80899650819603">not null</tspan>
<tspan x="1634.4886333357395" y="133.80899650819603">not null</tspan>
<tspan x="1634.4886333357395" y="149.80899650819603">not null</tspan>
<tspan x="1634.4886333357395" y="165.80899650819603"></tspan>
</text>
  <image />
  <rectangle />
  <text x="-768.8491909775885" y="626.8914492234452" font-size="16"><tspan x="768.8491909775885" y="598.2914492234452">🔑</tspan>
<tspan x="768.8491909775885" y="614.2914492234452"></tspan>
<tspan x="768.8491909775885" y="630.2914492234452"></tspan>
<tspan x="768.8491909775885" y="646.2914492234452"></tspan>
<tspan x="768.8491909775885" y="662.2914492234452"></tspan>
</text>
  <rectangle />
  <rectangle />
  <text x="-908.8491909775885" y="551.8914492234452" font-size="16"><tspan x="908.8491909775885" y="551.8914492234452">paiement</tspan>
</text>
  <rectangle />
  <text x="-798.8491909775885" y="626.8914492234452" font-size="16"><tspan x="798.8491909775885" y="598.2914492234452">id</tspan>
<tspan x="798.8491909775885" y="614.2914492234452">montant_ht</tspan>
<tspan x="798.8491909775885" y="630.2914492234452">montant_ttc</tspan>
<tspan x="798.8491909775885" y="646.2914492234452">date_paiement</tspan>
<tspan x="798.8491909775885" y="662.2914492234452"></tspan>
</text>
  <text x="-938.8491909775885" y="626.8914492234452" font-size="16"><tspan x="938.8491909775885" y="598.2914492234452">integer</tspan>
<tspan x="938.8491909775885" y="614.2914492234452">float</tspan>
<tspan x="938.8491909775885" y="630.2914492234452">float</tspan>
<tspan x="938.8491909775885" y="646.2914492234452">datetime</tspan>
<tspan x="938.8491909775885" y="662.2914492234452"></tspan>
</text>
  <text x="-1028.8491909775885" y="626.8914492234452" font-size="16"><tspan x="1028.8491909775885" y="598.2914492234452">not null</tspan>
<tspan x="1028.8491909775885" y="614.2914492234452">not null</tspan>
<tspan x="1028.8491909775885" y="630.2914492234452">not null</tspan>
<tspan x="1028.8491909775885" y="646.2914492234452">not null</tspan>
<tspan x="1028.8491909775885" y="662.2914492234452"></tspan>
</text>
  <image />
  <rectangle />
  <text x="-929.2062281711521" y="249.98886736862414" font-size="16"><tspan x="929.2062281711521" y="221.38886736862415">🔑</tspan>
<tspan x="929.2062281711521" y="237.38886736862415"></tspan>
<tspan x="929.2062281711521" y="253.38886736862415"></tspan>
<tspan x="929.2062281711521" y="269.3888673686241"></tspan>
</text>
  <rectangle />
  <rectangle />
  <text x="-1055.4562281711521" y="183.98886736862414" font-size="16"><tspan x="1055.4562281711521" y="183.98886736862414">preavis_locataire</tspan>
</text>
  <rectangle />
  <text x="-959.2062281711521" y="249.98886736862414" font-size="16"><tspan x="959.2062281711521" y="221.38886736862415">id</tspan>
<tspan x="959.2062281711521" y="237.38886736862415">date_debut_preavis</tspan>
<tspan x="959.2062281711521" y="253.38886736862415">duree_preavis</tspan>
<tspan x="959.2062281711521" y="269.3888673686241"></tspan>
</text>
  <text x="-1149.2062281711521" y="249.98886736862414" font-size="16"><tspan x="1149.2062281711521" y="221.38886736862415">integer</tspan>
<tspan x="1149.2062281711521" y="237.38886736862415">date</tspan>
<tspan x="1149.2062281711521" y="253.38886736862415">integer</tspan>
<tspan x="1149.2062281711521" y="269.3888673686241"></tspan>
</text>
  <text x="-1229.2062281711521" y="249.98886736862414" font-size="16"><tspan x="1229.2062281711521" y="221.38886736862415">not null</tspan>
<tspan x="1229.2062281711521" y="237.38886736862415">not null</tspan>
<tspan x="1229.2062281711521" y="253.38886736862415">not null</tspan>
<tspan x="1229.2062281711521" y="269.3888673686241"></tspan>
</text>
  <image />
  <rectangle />
  <text x="-390.7995973939542" y="786.6953471685547" font-size="16"><tspan x="390.7995973939542" y="758.0953471685547">🔑</tspan>
<tspan x="390.7995973939542" y="774.0953471685547"></tspan>
<tspan x="390.7995973939542" y="790.0953471685547"></tspan>
<tspan x="390.7995973939542" y="806.0953471685547"></tspan>
<tspan x="390.7995973939542" y="822.0953471685547"></tspan>
</text>
  <rectangle />
  <rectangle />
  <text x="-534.5495973939542" y="711.6953471685547" font-size="16"><tspan x="534.5495973939542" y="711.6953471685547">facture</tspan>
</text>
  <rectangle />
  <text x="-420.7995973939542" y="786.6953471685547" font-size="16"><tspan x="420.7995973939542" y="758.0953471685547">id</tspan>
<tspan x="420.7995973939542" y="774.0953471685547">montant_ht</tspan>
<tspan x="420.7995973939542" y="790.0953471685547">montant_ttc</tspan>
<tspan x="420.7995973939542" y="806.0953471685547">date_echeance</tspan>
<tspan x="420.7995973939542" y="822.0953471685547"></tspan>
</text>
  <text x="-560.7995973939542" y="786.6953471685547" font-size="16"><tspan x="560.7995973939542" y="758.0953471685547">integer</tspan>
<tspan x="560.7995973939542" y="774.0953471685547">float</tspan>
<tspan x="560.7995973939542" y="790.0953471685547">float</tspan>
<tspan x="560.7995973939542" y="806.0953471685547">datetime</tspan>
<tspan x="560.7995973939542" y="822.0953471685547"></tspan>
</text>
  <text x="-650.7995973939542" y="786.6953471685547" font-size="16"><tspan x="650.7995973939542" y="758.0953471685547">not null</tspan>
<tspan x="650.7995973939542" y="774.0953471685547">not null</tspan>
<tspan x="650.7995973939542" y="790.0953471685547"></tspan>
<tspan x="650.7995973939542" y="806.0953471685547">not null</tspan>
<tspan x="650.7995973939542" y="822.0953471685547"></tspan>
</text>
  <image />
  <rectangle />
  <text x="-15.0" y="955.0" font-size="16"><tspan x="15.0" y="926.4">🔑</tspan>
<tspan x="15.0" y="942.4"></tspan>
<tspan x="15.0" y="958.4"></tspan>
<tspan x="15.0" y="974.4"></tspan>
<tspan x="15.0" y="990.4"></tspan>
</text>
  <rectangle />
  <rectangle />
  <text x="-143.75" y="880.0" font-size="16"><tspan x="143.75" y="880.0">fichier</tspan>
</text>
  <rectangle />
  <text x="-45.0" y="955.0" font-size="16"><tspan x="45.0" y="926.4">id</tspan>
<tspan x="45.0" y="942.4">nom</tspan>
<tspan x="45.0" y="958.4">description</tspan>
<tspan x="45.0" y="974.4">chemin</tspan>
<tspan x="45.0" y="990.4"></tspan>
</text>
  <text x="-165.0" y="955.0" font-size="16"><tspan x="165.0" y="926.4">integer</tspan>
<tspan x="165.0" y="942.4">varchar</tspan>
<tspan x="165.0" y="958.4">text</tspan>
<tspan x="165.0" y="974.4">varchar</tspan>
<tspan x="165.0" y="990.4"></tspan>
</text>
  <text x="-245.0" y="955.0" font-size="16"><tspan x="245.0" y="926.4">not null</tspan>
<tspan x="245.0" y="942.4">not null</tspan>
<tspan x="245.0" y="958.4"></tspan>
<tspan x="245.0" y="974.4">not null</tspan>
<tspan x="245.0" y="990.4"></tspan>
</text>
  <image />
  <oval />
  <text x="-972.0088603517283" y="462.03462396648274" font-size="16"></text>
  <oval />
  <text x="-974.5088603517283" y="435.03462396648274" font-size="16"><tspan x="974.5088603517283" y="435.03462396648274">Relation_1</tspan>
</text>
  <text x="-1002.0088603517283" y="462.03462396648274" font-size="16"></text>
  <text x="-1012.0088603517283" y="462.03462396648274" font-size="16"></text>
  <text x="-1022.0088603517283" y="462.03462396648274" font-size="16"></text>
  <line />
  <text x="-1206.3731998258797" y="457.80025021783376" font-size="16"><tspan x="1206.3731998258797" y="457.80025021783376">(1.1)</tspan>
</text>
  <line />
  <text x="-849.5829990984016" y="449.6616701789198" font-size="16"><tspan x="849.5829990984016" y="449.6616701789198">0.n</tspan>
</text>
  <oval />
  <text x="-519.0379576947012" y="293.2977810590473" font-size="16"></text>
  <oval />
  <text x="-519.0379576947012" y="266.2977810590473" font-size="16"><tspan x="519.0379576947012" y="266.2977810590473">location</tspan>
</text>
  <text x="-549.0379576947012" y="293.2977810590473" font-size="16"></text>
  <text x="-559.0379576947012" y="293.2977810590473" font-size="16"></text>
  <text x="-569.0379576947012" y="293.2977810590473" font-size="16"></text>
  <oval />
  <text x="-1507.4158495625607" y="240.06511867489775" font-size="16"></text>
  <oval />
  <text x="-1509.9158495625607" y="213.06511867489775" font-size="16"><tspan x="1509.9158495625607" y="213.06511867489775">Relation_3</tspan>
</text>
  <text x="-1537.4158495625607" y="240.06511867489775" font-size="16"></text>
  <text x="-1547.4158495625607" y="240.06511867489775" font-size="16"></text>
  <text x="-1557.4158495625607" y="240.06511867489775" font-size="16"></text>
  <line />
  <text x="-1556.576694431296" y="262.8154975720413" font-size="16"><tspan x="1556.576694431296" y="262.8154975720413">1.1</tspan>
</text>
  <line />
  <text x="-1543.45224144915" y="179.3870575915469" font-size="16"><tspan x="1543.45224144915" y="179.3870575915469">0.n</tspan>
</text>
  <oval />
  <text x="-1079.206228171152" y="141.12394426690867" font-size="16"></text>
  <oval />
  <text x="-1081.706228171152" y="114.12394426690867" font-size="16"><tspan x="1081.706228171152" y="114.12394426690867">Relation_4</tspan>
</text>
  <text x="-1109.206228171152" y="141.12394426690867" font-size="16"></text>
  <text x="-1119.206228171152" y="141.12394426690867" font-size="16"></text>
  <text x="-1129.206228171152" y="141.12394426690867" font-size="16"></text>
  <line />
  <text x="-1119.206228171152" y="161.0564058177664" font-size="16"><tspan x="1119.206228171152" y="161.0564058177664">0.n</tspan>
</text>
  <oval />
  <text x="-361.7598706771631" y="641.8602031113642" font-size="16"><tspan x="361.7598706771631" y="627.5602031113642"></tspan>
<tspan x="361.7598706771631" y="643.5602031113642"></tspan>
</text>
  <oval />
  <text x="-505.5098706771631" y="605.8602031113642" font-size="16"><tspan x="505.5098706771631" y="605.8602031113642">facturation</tspan>
</text>
  <text x="-391.7598706771631" y="641.8602031113642" font-size="16"><tspan x="391.7598706771631" y="627.5602031113642">date_facturation</tspan>
<tspan x="391.7598706771631" y="643.5602031113642"></tspan>
</text>
  <text x="-561.7598706771631" y="641.8602031113642" font-size="16"><tspan x="561.7598706771631" y="627.5602031113642">datetime</tspan>
<tspan x="561.7598706771631" y="643.5602031113642"></tspan>
</text>
  <text x="-651.7598706771631" y="641.8602031113642" font-size="16"><tspan x="651.7598706771631" y="627.5602031113642">not null</tspan>
<tspan x="651.7598706771631" y="643.5602031113642"></tspan>
</text>
  <line />
  <text x="-549.4585042611191" y="560.5744597513606" font-size="16"><tspan x="549.4585042611191" y="560.5744597513606">0.n</tspan>
</text>
  <line />
  <text x="-553.7797340355587" y="679.7777751399594" font-size="16"><tspan x="553.7797340355587" y="679.7777751399594">0.n</tspan>
</text>
  <oval />
  <text x="-897.8491909775887" y="778.1495035657017" font-size="16"></text>
  <oval />
  <text x="-900.3491909775887" y="751.1495035657017" font-size="16"><tspan x="900.3491909775887" y="751.1495035657017">Relation_6</tspan>
</text>
  <text x="-927.8491909775887" y="778.1495035657017" font-size="16"></text>
  <text x="-937.8491909775887" y="778.1495035657017" font-size="16"></text>
  <text x="-947.8491909775887" y="778.1495035657017" font-size="16"></text>
  <line />
  <text x="-814.3243941857714" y="759.9224253671282" font-size="16"><tspan x="814.3243941857714" y="759.9224253671282">1.1</tspan>
</text>
  <line />
  <text x="-938.3491909775886" y="696.5204763945735" font-size="16"><tspan x="938.3491909775886" y="696.5204763945735">0.n</tspan>
</text>
  <oval />
  <text x="-77.0" y="715.3999999999996" font-size="16"><tspan x="77.0" y="701.0999999999997"></tspan>
<tspan x="77.0" y="717.0999999999997"></tspan>
</text>
  <oval />
  <text x="-143.25" y="679.3999999999996" font-size="16"><tspan x="143.25" y="679.3999999999996">fichiers_bail</tspan>
</text>
  <text x="-107.0" y="715.3999999999996" font-size="16"><tspan x="107.0" y="701.0999999999997">date_ajout</tspan>
<tspan x="107.0" y="717.0999999999997"></tspan>
</text>
  <text x="-217.0" y="715.3999999999996" font-size="16"><tspan x="217.0" y="701.0999999999997">datetime</tspan>
<tspan x="217.0" y="717.0999999999997"></tspan>
</text>
  <text x="-307.0" y="715.3999999999996" font-size="16"><tspan x="307.0" y="701.0999999999997"></tspan>
<tspan x="307.0" y="717.0999999999997"></tspan>
</text>
  <line />
  <text x="-342.07856892253744" y="576.3443581956783" font-size="16"><tspan x="342.07856892253744" y="576.3443581956783">0.n</tspan>
</text>
  <line />
  <text x="-181.0" y="800.6999999999998" font-size="16"><tspan x="181.0" y="800.6999999999998">0.n</tspan>
</text>
  <oval />
  <text x="-12.0" y="386.39999999999986" font-size="16"><tspan x="12.0" y="372.09999999999985"></tspan>
<tspan x="12.0" y="388.09999999999985"></tspan>
</text>
  <oval />
  <text x="-99.5" y="350.39999999999986" font-size="16"><tspan x="99.5" y="350.39999999999986">fichiers_locataire</tspan>
</text>
  <text x="-42.0" y="386.39999999999986" font-size="16"><tspan x="42.0" y="372.09999999999985">date_ajout</tspan>
<tspan x="42.0" y="388.09999999999985"></tspan>
</text>
  <text x="-152.0" y="386.39999999999986" font-size="16"><tspan x="152.0" y="372.09999999999985">datetime</tspan>
<tspan x="152.0" y="388.09999999999985"></tspan>
</text>
  <text x="-242.0" y="386.39999999999986" font-size="16"><tspan x="242.0" y="372.09999999999985">not null</tspan>
<tspan x="242.0" y="388.09999999999985"></tspan>
</text>
  <line />
  <text x="-168.5" y="636.1999999999999" font-size="16"><tspan x="168.5" y="636.1999999999999">0.n</tspan>
</text>
  <oval />
  <text x="-1021.0" y="941.3999999999996" font-size="16"><tspan x="1021.0" y="927.0999999999997"></tspan>
<tspan x="1021.0" y="943.0999999999997"></tspan>
</text>
  <oval />
  <text x="-1076.0" y="905.3999999999996" font-size="16"><tspan x="1076.0" y="905.3999999999996">fichiers_preavis</tspan>
</text>
  <text x="-1051.0" y="941.3999999999996" font-size="16"><tspan x="1051.0" y="927.0999999999997">date_ajout</tspan>
<tspan x="1051.0" y="943.0999999999997"></tspan>
</text>
  <text x="-1161.0" y="941.3999999999996" font-size="16"><tspan x="1161.0" y="927.0999999999997">datetime</tspan>
<tspan x="1161.0" y="943.0999999999997"></tspan>
</text>
  <text x="-1251.0" y="941.3999999999996" font-size="16"><tspan x="1251.0" y="927.0999999999997"></tspan>
<tspan x="1251.0" y="943.0999999999997"></tspan>
</text>
  <line />
  <text x="-1127.6031140855762" y="580.6944336843119" font-size="16"><tspan x="1127.6031140855762" y="580.6944336843119">0.n</tspan>
</text>
  <line />
  <text x="-673.0" y="925.6999999999998" font-size="16"><tspan x="673.0" y="925.6999999999998">0.n</tspan>
</text>
  <line />
  <line />
  <line />
  <line />
  <line />
  <line />
  <line />
  <line />
  <line />
  <line />
  <line />
  <line />
  <line />
  <line />
  <rectangle />
  <text x="-1914.0" y="187.0" font-size="16"><tspan x="1914.0" y="144.1">1 : avant 1949</tspan>
<tspan x="1914.0" y="160.1">2 : de 1949 à 1974</tspan>
<tspan x="1914.0" y="176.1">3 : de 1975 à 1989</tspan>
<tspan x="1914.0" y="192.1">4 : de 1989 à 2005</tspan>
<tspan x="1914.0" y="208.1">5 : depuis 2005</tspan>
<tspan x="1914.0" y="224.1"></tspan>
</text>
  <line />
  <line />
  <text x="-550.597547769888" y="339.79324872520203" font-size="16"><tspan x="550.597547769888" y="339.79324872520203">0.n</tspan>
</text>
  <line />
  <line />
  <line />
  <line />
  <text x="-549.3007295659085" y="226.12484824392112" font-size="16"><tspan x="549.3007295659085" y="226.12484824392112">0.n</tspan>
</text>
  <line />
  <text x="-899.3848648041338" y="124.53792984785183" font-size="16"><tspan x="899.3848648041338" y="124.53792984785183">1.1</tspan>
</text>
  <line />
  <text x="-350.7817507185579" y="247.17595771439744" font-size="16"><tspan x="350.7817507185579" y="247.17595771439744">0.n</tspan>
</text>
</svg>
